<?xml version="1.0" standalone="no"?>
<!DOCTYPE svg PUBLIC "-//W3C//DTD SVG 20010904//EN"
 "http://www.w3.org/TR/2001/REC-SVG-20010904/DTD/svg10.dtd">
<svg version="1.0" xmlns="http://www.w3.org/2000/svg"
 width="700.000000pt" height="700.000000pt" viewBox="0 0 700.000000 700.000000"
 preserveAspectRatio="xMidYMid meet">
<metadata>
Created by potrace 1.14, written by Peter Selinger 2001-2017
</metadata>
<g transform="translate(0.000000,700.000000) scale(0.100000,-0.100000)"
fill="#000000" stroke="none">
<path d="M2320 3868 l0 -192 -37 36 c-71 67 -114 83 -233 83 -96 0 -110 -3
-158 -28 -73 -38 -128 -97 -165 -174 -52 -112 -50 -293 4 -408 32 -67 99 -137
166 -170 52 -27 68 -30 153 -30 84 0 102 3 152 28 31 15 68 41 82 58 14 16 27
29 30 29 3 0 6 -25 6 -55 l0 -55 100 0 100 0 0 535 0 535 -100 0 -100 0 0
-192z m-119 -265 c152 -78 162 -322 16 -416 -86 -56 -184 -44 -258 32 -55 57
-74 115 -66 199 15 172 161 259 308 185z"/>
<path d="M3300 3873 l0 -187 -27 26 c-16 15 -53 39 -83 55 -76 39 -199 45
-282 13 -227 -85 -311 -420 -162 -645 62 -94 153 -145 270 -153 98 -6 170 17
235 76 l49 44 0 -56 0 -56 105 0 105 0 0 535 0 535 -105 0 -105 0 0 -187z
m-125 -262 c84 -39 127 -113 127 -223 0 -112 -58 -199 -151 -227 -56 -16 -90
-14 -147 13 -84 39 -127 113 -126 219 0 137 89 237 212 237 25 0 63 -9 85 -19z"/>
<path d="M991 3978 c-27 -73 -351 -979 -351 -983 0 -3 47 -5 103 -5 l104 0 13
43 c7 23 21 66 32 95 l20 52 206 -2 206 -3 30 -92 30 -93 103 0 c57 0 103 3
103 8 0 4 -80 231 -177 504 l-178 498 -118 0 c-113 0 -118 -1 -126 -22z m199
-417 c39 -111 70 -206 70 -212 0 -5 -61 -9 -145 -9 -80 0 -145 3 -145 8 0 14
143 422 147 419 2 -2 35 -95 73 -206z"/>
<path d="M4475 3799 c-57 -7 -117 -35 -157 -72 l-28 -26 0 44 0 45 -105 0
-105 0 0 -400 0 -400 105 0 105 0 0 252 c0 234 1 255 21 294 67 139 287 116
328 -33 6 -22 11 -141 11 -275 l0 -238 100 0 100 0 0 238 c0 132 5 253 10 274
40 142 245 173 323 48 21 -33 22 -48 25 -297 l3 -263 100 0 99 0 0 280 c0 332
-6 359 -95 446 -64 63 -126 86 -230 86 -95 -1 -177 -35 -236 -99 l-41 -45 -35
42 c-64 75 -181 114 -298 99z"/>
<path d="M5876 3800 c-125 -22 -243 -115 -288 -228 -19 -49 -23 -75 -23 -182
0 -120 1 -128 32 -192 38 -81 102 -146 181 -185 53 -26 65 -28 182 -28 117 0
128 2 180 28 30 16 72 45 93 65 39 37 97 126 97 150 0 9 -28 12 -105 12 l-105
0 -36 -39 c-27 -30 -47 -42 -86 -50 -113 -25 -205 36 -232 152 l-6 27 294 0
295 0 6 44 c10 65 -18 188 -57 254 -79 132 -252 202 -422 172z m177 -184 c43
-21 76 -63 87 -112 l8 -34 -189 0 c-184 0 -189 1 -189 20 0 48 49 107 110 135
44 19 121 15 173 -9z"/>
<path d="M3750 3207 c-39 -13 -80 -67 -80 -104 0 -41 27 -91 59 -107 95 -49
201 17 188 116 -6 46 -29 75 -74 94 -38 17 -47 17 -93 1z"/>
</g>
</svg>
