<svg width="126" height="127" viewBox="0 0 126 127" fill="none" xmlns="http://www.w3.org/2000/svg">
<path d="M118.125 55.625H70.875V8.375C70.875 6.28642 70.0453 4.28338 68.5685 2.80654C67.0916 1.32969 65.0886 0.5 63 0.5C60.9114 0.5 58.9084 1.32969 57.4315 2.80654C55.9547 4.28338 55.125 6.28642 55.125 8.375V55.625H7.875C5.78642 55.625 3.78338 56.4547 2.30654 57.9315C0.829687 59.4084 0 61.4114 0 63.5C0 65.5886 0.829687 67.5916 2.30654 69.0685C3.78338 70.5453 5.78642 71.375 7.875 71.375H55.125V118.625C55.125 120.714 55.9547 122.717 57.4315 124.193C58.9084 125.67 60.9114 126.5 63 126.5C65.0886 126.5 67.0916 125.67 68.5685 124.193C70.0453 122.717 70.875 120.714 70.875 118.625V71.375H118.125C120.214 71.375 122.217 70.5453 123.693 69.0685C125.17 67.5916 126 65.5886 126 63.5C126 61.4114 125.17 59.4084 123.693 57.9315C122.217 56.4547 120.214 55.625 118.125 55.625Z" fill="#F5FAFA"/>
</svg>
