<svg width="30" height="30" viewBox="0 0 30 30" fill="none" xmlns="http://www.w3.org/2000/svg">
<path d="M13.0826 0.641614C12.7342 0.138477 12.1246 -0.103434 11.5343 0.041674C4.74148 1.71569 0 7.78285 0 14.7983C0 23.1781 6.82189 30 15.2017 30C22.2172 30 28.2843 25.2585 29.9583 18.4656C30.1034 17.8754 29.8615 17.2658 29.3584 16.9174C28.8649 16.5788 28.1972 16.5884 27.7037 16.9368C25.9136 18.2044 23.8137 18.8818 21.6268 18.8818C15.8307 18.8818 11.1182 14.1693 11.1182 8.37309C11.1182 6.18626 11.7956 4.08643 13.0632 2.29632C13.4116 1.80281 13.4212 1.13512 13.0826 0.641614Z" fill="#17224D"/>
</svg>
