<svg width="32" height="32" viewBox="0 0 32 32" fill="none" xmlns="http://www.w3.org/2000/svg">
<path d="M16 25C20.9706 25 25 20.9706 25 16C25 11.0294 20.9706 7 16 7C11.0294 7 7 11.0294 7 16C7 20.9706 11.0294 25 16 25Z" fill="#F5FAFA"/>
<path d="M17.5 4.139V2C17.5 1.60218 17.342 1.22064 17.0607 0.93934C16.7794 0.658035 16.3978 0.5 16 0.5C15.6022 0.5 15.2206 0.658035 14.9393 0.93934C14.658 1.22064 14.5 1.60218 14.5 2V4.139C14.5 4.53682 14.658 4.91836 14.9393 5.19966C15.2206 5.48096 15.6022 5.639 16 5.639C16.3978 5.639 16.7794 5.48096 17.0607 5.19966C17.342 4.91836 17.5 4.53682 17.5 4.139ZM8.674 8.673C8.95521 8.39171 9.11318 8.01025 9.11318 7.6125C9.11318 7.21475 8.95521 6.83329 8.674 6.552L7.16 5.04C7.02219 4.89437 6.85659 4.77785 6.67298 4.69733C6.48937 4.6168 6.29148 4.57389 6.091 4.57115C5.89053 4.56841 5.69154 4.60589 5.5058 4.68137C5.32005 4.75685 5.15133 4.8688 5.00959 5.0106C4.86785 5.15241 4.75598 5.32119 4.68059 5.50696C4.6052 5.69274 4.56781 5.89175 4.57065 6.09222C4.57348 6.2927 4.61648 6.49057 4.6971 6.67414C4.77771 6.85771 4.89431 7.02326 5.04 7.161L6.552 8.673C6.69117 8.81263 6.85652 8.92342 7.03859 8.99901C7.22066 9.0746 7.41586 9.11351 7.613 9.11351C7.81014 9.11351 8.00534 9.0746 8.18741 8.99901C8.36948 8.92342 8.53483 8.81263 8.674 8.673ZM2 17.5H4.138C4.53582 17.5 4.91736 17.342 5.19866 17.0607C5.47996 16.7794 5.638 16.3978 5.638 16C5.638 15.6022 5.47996 15.2206 5.19866 14.9393C4.91736 14.658 4.53582 14.5 4.138 14.5H2C1.60218 14.5 1.22064 14.658 0.93934 14.9393C0.658035 15.2206 0.5 15.6022 0.5 16C0.5 16.3978 0.658035 16.7794 0.93934 17.0607C1.22064 17.342 1.60218 17.5 2 17.5ZM5.04 26.96C5.17901 27.0997 5.34427 27.2106 5.52626 27.2862C5.70826 27.3619 5.90341 27.4008 6.1005 27.4008C6.29759 27.4008 6.49274 27.3619 6.67474 27.2862C6.85673 27.2106 7.02199 27.0997 7.161 26.96L8.673 25.448C8.82037 25.3107 8.93858 25.1451 9.02056 24.9611C9.10255 24.7771 9.14663 24.5785 9.15018 24.377C9.15374 24.1756 9.11669 23.9756 9.04125 23.7888C8.9658 23.602 8.85351 23.4324 8.71108 23.2899C8.56864 23.1475 8.39897 23.0352 8.2122 22.9598C8.02542 22.8843 7.82536 22.8473 7.62395 22.8508C7.42255 22.8544 7.22392 22.8985 7.03992 22.9804C6.85593 23.0624 6.69032 23.1806 6.553 23.328L5.04 24.838C4.90061 24.9773 4.79004 25.1427 4.71459 25.3248C4.63915 25.5068 4.60032 25.7019 4.60032 25.899C4.60032 26.0961 4.63915 26.2912 4.71459 26.4732C4.79004 26.6553 4.90061 26.8207 5.04 26.96ZM14.5 27.861V30C14.5 30.3978 14.658 30.7794 14.9393 31.0607C15.2206 31.342 15.6022 31.5 16 31.5C16.3978 31.5 16.7794 31.342 17.0607 31.0607C17.342 30.7794 17.5 30.3978 17.5 30V27.861C17.5 27.4632 17.342 27.0816 17.0607 26.8003C16.7794 26.519 16.3978 26.361 16 26.361C15.6022 26.361 15.2206 26.519 14.9393 26.8003C14.658 27.0816 14.5 27.4632 14.5 27.861ZM24.839 26.96C24.978 27.0997 25.1433 27.2106 25.3253 27.2862C25.5073 27.3619 25.7024 27.4008 25.8995 27.4008C26.0966 27.4008 26.2917 27.3619 26.4737 27.2862C26.6557 27.2106 26.821 27.0997 26.96 26.96C27.2412 26.6787 27.3992 26.2972 27.3992 25.8995C27.3992 25.5018 27.2412 25.1203 26.96 24.839L25.448 23.327C25.3102 23.1814 25.1446 23.0649 24.961 22.9843C24.7774 22.9038 24.5795 22.8609 24.379 22.8582C24.1785 22.8554 23.9795 22.8929 23.7938 22.9684C23.6081 23.0438 23.4393 23.1558 23.2976 23.2976C23.1559 23.4394 23.044 23.6082 22.9686 23.794C22.8932 23.9797 22.8558 24.1788 22.8587 24.3792C22.8615 24.5797 22.9045 24.7776 22.9851 24.9611C23.0657 25.1447 23.1823 25.3103 23.328 25.448L24.838 26.96H24.839ZM30 14.5H27.861C27.4632 14.5 27.0816 14.658 26.8003 14.9393C26.519 15.2206 26.361 15.6022 26.361 16C26.361 16.3978 26.519 16.7794 26.8003 17.0607C27.0816 17.342 27.4632 17.5 27.861 17.5H30C30.3978 17.5 30.7794 17.342 31.0607 17.0607C31.342 16.7794 31.5 16.3978 31.5 16C31.5 15.6022 31.342 15.2206 31.0607 14.9393C30.7794 14.658 30.3978 14.5 30 14.5ZM26.96 5.04C26.6787 4.75879 26.2972 4.60082 25.8995 4.60082C25.5018 4.60082 25.1203 4.75879 24.839 5.04L23.327 6.552C23.1814 6.68981 23.0649 6.85541 22.9843 7.03902C22.9038 7.22263 22.8609 7.42052 22.8582 7.621C22.8554 7.82147 22.8929 8.02046 22.9684 8.2062C23.0438 8.39195 23.1558 8.56067 23.2976 8.70241C23.4394 8.84415 23.6082 8.95602 23.794 9.03141C23.9797 9.1068 24.1788 9.14419 24.3792 9.14135C24.5797 9.13852 24.7776 9.09552 24.9611 9.0149C25.1447 8.93429 25.3103 8.81769 25.448 8.672L26.96 7.162C27.0994 7.0227 27.21 6.8573 27.2854 6.67525C27.3608 6.4932 27.3997 6.29806 27.3997 6.101C27.3997 5.90394 27.3608 5.7088 27.2854 5.52675C27.21 5.3447 27.0994 5.1793 26.96 5.04Z" fill="#F5FAFA"/>
</svg>
